<svg xmlns="http://www.w3.org/2000/svg" viewBox="0 0 120 120">
  <g transform="matrix(1.2265909862956181,0,0,1.2265909862956181,55,-16.016585857670123)" stroke="none" fill="white">
    <path d="M60.621 72.245a70.418 70.418 0 01-3.819-1.303 100.658 100.658 0 01-3.277 3.73 78.531 78.531 0 005.733 2.022 2.329 2.329 0 002.907-1.544 2.327 2.327 0 00-1.544-2.905zM79.847 46.961c-7.223 4.347-16.837 8.561-27.072 11.865-25.786 8.327-44.194 7.587-45.542 3.422-.409-1.269.984-4.184 6.262-8.216a2.328 2.328 0 00-2.825-3.699c-6.48 4.952-9.125 9.442-7.864 13.345 1.42 4.397 7.438 6.25 15.773 6.25 9.89 0 23.041-2.61 35.626-6.675 10.563-3.41 20.522-7.782 28.041-12.306a2.325 2.325 0 10-2.399-3.986z"></path>
    <path d="M30.923 61.979c2.049-.331 4.164-.73 6.329-1.196-7.324-4.97-13.436-10.61-17.497-16.209-4.411-6.082-5.842-11.405-3.922-14.604 2.669-4.451 11.87-5.005 23.436-1.413a2.33 2.33 0 002.913-1.532 2.328 2.328 0 00-1.533-2.912c-14.107-4.38-24.875-3.086-28.807 3.463-4.999 8.335 3.21 22.482 19.081 34.403zM48.355 67.259c-2.256.63-4.492 1.203-6.692 1.717 1.464.825 2.937 1.624 4.418 2.366a80.373 80.373 0 003.3-3.56c-.342-.165-.683-.353-1.026-.523z"></path>
    <path d="M41.059 40.811a2.325 2.325 0 003.239-.572C56.494 22.821 67.994 16.25 71.289 18.37c3.67 2.362 1.659 16.587-9.502 34.927 2.445-.969 4.81-1.978 7.066-3.019 8.129-15.237 12.165-31.183 4.954-35.822-8.115-5.224-22.962 8.32-33.321 23.113a2.327 2.327 0 00.573 3.242zM54.866 65.303c-.631.204-1.26.399-1.89.595-10.087 12.493-19.285 17.748-22.403 15.746-1.024-.66-1.411-2.204-1.556-3.384a2.32 2.32 0 00-2.592-2.027 2.327 2.327 0 00-2.026 2.592c.386 3.154 1.616 5.419 3.656 6.732 1.198.771 2.552 1.13 4.025 1.13 8.015 0 19.548-10.643 28.707-23.431-1.948.71-3.918 1.4-5.921 2.047z"></path>
    <circle cx="35.509" cy="47.542" r="6.439"></circle>
    <circle cx="91.062" cy="42.838" r="6.44"></circle>
    <circle cx="72.057" cy="77.258" r="6.439"></circle>
  </g>
</svg>