<svg data-v-423bf9ae="" xmlns="http://www.w3.org/2000/svg" viewBox="0 0 601 90" class="iconLeft"><!----><!----><!----><g data-v-423bf9ae="" id="82595254-8f35-40ff-bb45-68e6fb4e7673" fill="white" transform="matrix(5.88235305117351,0,0,5.88235305117351,132.23400540775353,-8.529410774182566)"><path d="M6.12 13.47C3.57 13.47 2.16 11.51 2.16 8.97C2.16 6.43 3.40 4.73 5.73 4.73C6.68 4.73 7.34 4.96 7.62 5.07L7.83 6.94L8.37 6.94L8.48 4.56C8.48 4.56 7.45 4.00 5.63 4.00C2.45 4.00 0.73 6.43 0.73 9.27C0.73 12.39 2.73 14.20 5.96 14.20C7.35 14.20 8.44 13.65 8.44 13.65L8.44 11.16L7.91 11.16L7.62 13.26C7.29 13.34 6.72 13.47 6.12 13.47ZM18.17 4.83L19.29 4.63L19.29 4.20L16.03 4.20L16.03 4.63L17.15 4.83L17.15 10.35C17.15 12.21 16.32 13.45 14.59 13.45C13.06 13.45 12.19 12.26 12.19 10.49L12.19 4.83L13.31 4.63L13.31 4.20L9.70 4.20L9.70 4.63L10.82 4.82L10.82 10.32C10.82 12.73 12.15 14.20 14.53 14.20C17.37 14.20 18.17 11.97 18.17 10.02ZM22.83 9.98L24.30 9.98L26.36 13.09C26.96 13.97 27.17 14.13 28 14.13C28.50 14.13 28.91 14 28.91 14L28.91 13.59C28.38 13.51 28.25 13.45 27.90 12.98L25.55 9.76C26.98 9.37 27.80 8.36 27.80 7.03C27.80 5.26 26.54 4.20 24.12 4.20L20.34 4.20L20.34 4.63L21.46 4.82L21.46 13.38L20.34 13.57L20.34 14L24.25 14L24.25 13.57L22.83 13.38ZM22.83 9.28L22.83 4.90L23.93 4.90C25.69 4.90 26.40 5.89 26.40 7.04C26.40 8.39 25.62 9.28 24.26 9.28ZM31.43 11.16L35.38 11.16L36.18 13.38L35.08 13.57L35.08 14L38.49 14L38.49 13.57L37.60 13.38L34.15 4.10L33.11 4.19L29.74 13.38L28.69 13.57L28.69 14L31.96 14L31.96 13.57L30.79 13.38C30.84 13.08 31.00 12.43 31.21 11.83ZM33.38 5.28C33.38 5.28 33.50 6.03 33.75 6.73L35.11 10.46L31.67 10.46L32.94 6.69C33.17 6.03 33.32 5.28 33.32 5.28ZM38.36 4.20L38.23 6.78L38.75 6.78L39.27 5.01L41.64 4.89L41.64 13.38L40.52 13.57L40.52 14L44.13 14L44.13 13.57L43.01 13.38L43.01 4.89L45.47 5.01L45.57 6.78L46.09 6.78L46.38 4.20ZM49.76 4.82L50.88 4.63L50.88 4.20L47.26 4.20L47.26 4.63L48.38 4.82L48.38 13.38L47.26 13.57L47.26 14L50.88 14L50.88 13.57L49.76 13.38ZM57.01 13.54C54.81 13.54 53.59 11.13 53.59 8.90C53.59 6.52 54.60 4.66 56.57 4.66C58.80 4.66 60.02 7.07 60.02 9.39C60.02 11.68 59.01 13.54 57.01 13.54ZM56.64 14.20C59.99 14.20 61.45 11.56 61.45 9.06C61.45 6.12 59.64 4.00 56.97 4.00C53.62 4.00 52.16 6.64 52.16 9.14C52.16 12.08 53.97 14.20 56.64 14.20ZM70.28 10.72C70.28 11.30 70.34 11.94 70.34 11.94L70.28 11.96C70.28 11.96 69.94 11.34 69.59 10.86L64.71 4.14L63.17 4.20L63.17 4.72L63.81 5.46L63.81 13.34L62.69 13.57L62.69 14L65.74 14L65.74 13.57L64.62 13.34L64.62 7.39C64.62 6.75 64.55 6.13 64.55 6.13L64.60 6.12C64.60 6.12 64.92 6.68 65.32 7.22L70.34 14.06L71.09 14L71.09 4.89L72.21 4.63L72.21 4.20L69.16 4.20L69.16 4.63L70.28 4.89ZM76.13 13.47C75.60 13.47 75.00 13.41 74.48 13.24L74.17 11.16L73.64 11.16L73.65 13.64C73.65 13.64 74.55 14.20 76.15 14.20C78.27 14.20 79.62 13.15 79.62 11.48C79.62 9.72 78.25 9.09 77 8.43C75.96 7.88 75.03 7.34 75.03 6.27C75.03 5.28 75.67 4.73 76.78 4.73C77.31 4.73 77.98 4.86 78.46 5.07L78.67 6.94L79.21 6.94L79.32 4.58C79.32 4.58 78.39 4.00 76.87 4.00C74.96 4.00 73.71 5.03 73.71 6.52C73.71 8.19 74.97 8.82 76.17 9.44C77.27 10.00 78.30 10.53 78.30 11.82C78.30 12.89 77.32 13.47 76.13 13.47Z"></path></g><!----><g data-v-423bf9ae="" id="ebf3daed-64f9-4ada-81aa-8205bfaf2e41" transform="matrix(1.2265909862956181,0,0,1.2265909862956181,-2.830622604656874,-16.016585857670123)" stroke="none" fill="white"><path d="M60.621 72.245a70.418 70.418 0 01-3.819-1.303 100.658 100.658 0 01-3.277 3.73 78.531 78.531 0 005.733 2.022 2.329 2.329 0 002.907-1.544 2.327 2.327 0 00-1.544-2.905zM79.847 46.961c-7.223 4.347-16.837 8.561-27.072 11.865-25.786 8.327-44.194 7.587-45.542 3.422-.409-1.269.984-4.184 6.262-8.216a2.328 2.328 0 00-2.825-3.699c-6.48 4.952-9.125 9.442-7.864 13.345 1.42 4.397 7.438 6.25 15.773 6.25 9.89 0 23.041-2.61 35.626-6.675 10.563-3.41 20.522-7.782 28.041-12.306a2.325 2.325 0 10-2.399-3.986z"></path><path d="M30.923 61.979c2.049-.331 4.164-.73 6.329-1.196-7.324-4.97-13.436-10.61-17.497-16.209-4.411-6.082-5.842-11.405-3.922-14.604 2.669-4.451 11.87-5.005 23.436-1.413a2.33 2.33 0 002.913-1.532 2.328 2.328 0 00-1.533-2.912c-14.107-4.38-24.875-3.086-28.807 3.463-4.999 8.335 3.21 22.482 19.081 34.403zM48.355 67.259c-2.256.63-4.492 1.203-6.692 1.717 1.464.825 2.937 1.624 4.418 2.366a80.373 80.373 0 003.3-3.56c-.342-.165-.683-.353-1.026-.523z"></path><path d="M41.059 40.811a2.325 2.325 0 003.239-.572C56.494 22.821 67.994 16.25 71.289 18.37c3.67 2.362 1.659 16.587-9.502 34.927 2.445-.969 4.81-1.978 7.066-3.019 8.129-15.237 12.165-31.183 4.954-35.822-8.115-5.224-22.962 8.32-33.321 23.113a2.327 2.327 0 00.573 3.242zM54.866 65.303c-.631.204-1.26.399-1.89.595-10.087 12.493-19.285 17.748-22.403 15.746-1.024-.66-1.411-2.204-1.556-3.384a2.32 2.32 0 00-2.592-2.027 2.327 2.327 0 00-2.026 2.592c.386 3.154 1.616 5.419 3.656 6.732 1.198.771 2.552 1.13 4.025 1.13 8.015 0 19.548-10.643 28.707-23.431-1.948.71-3.918 1.4-5.921 2.047z"></path><circle cx="35.509" cy="47.542" r="6.439"></circle><circle cx="91.062" cy="42.838" r="6.44"></circle><circle cx="72.057" cy="77.258" r="6.439"></circle></g><!----></svg>